<?xml version="1.0" encoding="UTF-8"?>
<!DOCTYPE svg PUBLIC "-//W3C//DTD SVG 1.1//EN" "http://www.w3.org/Graphics/SVG/1.1/DTD/svg11.dtd">
<!-- Creator: CorelDRAW X7 -->
<svg xmlns="http://www.w3.org/2000/svg" xml:space="preserve" width="215.9mm" height="215.9mm" version="1.1" style="shape-rendering:geometricPrecision; text-rendering:geometricPrecision; image-rendering:optimizeQuality; fill-rule:evenodd; clip-rule:evenodd"
viewBox="0 0 5804 5804"
 xmlns:xlink="http://www.w3.org/1999/xlink">
 <defs>
  <style type="text/css">
   <![CDATA[
    .fil0 {fill:#F5E0AD}
   ]]>
  </style>
 </defs>
 <g id="Capa_x0020_1">
  <metadata id="CorelCorpID_0Corel-Layer"/>
  <g id="_1750761362864">
   <g>
    <path id="LinkedIn__x0028_alt_x0029__3_" class="fil0" d="M5374 0l-4944 0c-238,0 -430,187 -430,416l0 4973c0,228 192,415 430,415l4944 0c238,0 430,-187 430,-415l0 -4973c0,-229 -192,-416 -430,-416zm-3614 4858l-877 0 0 -2620 877 0 0 2620 0 0zm-439 -2977l-6 0c-294,0 -484,-203 -484,-453 0,-258 196,-453 496,-453 300,0 484,195 490,453 0,250 -190,453 -496,453zm3599 2977l-874 0 0 -1401c0,-352 -129,-594 -446,-594 -244,0 -386,163 -449,321 -23,54 -29,132 -29,211l0 1463 -877 0c0,0 11,-2374 0,-2620l877 0 0 372c115,-178 324,-434 789,-434 578,0 1009,375 1009,1180l0 1502zm-1803 -2240c0,-2 2,-5 5,-8l0 8 -5 0 0 0z"/>
   </g>
   <g>
   </g>
   <g>
   </g>
   <g>
   </g>
   <g>
   </g>
   <g>
   </g>
   <g>
   </g>
   <g>
   </g>
   <g>
   </g>
   <g>
   </g>
   <g>
   </g>
   <g>
   </g>
   <g>
   </g>
   <g>
   </g>
   <g>
   </g>
   <g>
   </g>
  </g>
 </g>
</svg>
