<?xml version="1.0" encoding="UTF-8"?>
<!DOCTYPE svg PUBLIC "-//W3C//DTD SVG 1.1//EN" "http://www.w3.org/Graphics/SVG/1.1/DTD/svg11.dtd">
<!-- Creator: CorelDRAW X7 -->
<svg xmlns="http://www.w3.org/2000/svg" xml:space="preserve" width="270.934mm" height="270.933mm" version="1.1" style="shape-rendering:geometricPrecision; text-rendering:geometricPrecision; image-rendering:optimizeQuality; fill-rule:evenodd; clip-rule:evenodd"
viewBox="0 0 5312 5312"
 xmlns:xlink="http://www.w3.org/1999/xlink"
 enable-background="new 0 0 1024 1024">
 <defs>
  <style type="text/css">
   <![CDATA[
    .fil0 {fill:#F5E0AD}
   ]]>
  </style>
 </defs>
 <g id="Capa_x0020_1">
  <metadata id="CorelCorpID_0Corel-Layer"/>
  <g id="_1750894626800">
   <g>
    <g>
     <path class="fil0" d="M2658 1c367,0 735,-2 1102,0 346,2 671,81 952,291 368,275 556,650 591,1102 12,160 8,320 8,480 1,621 1,1241 1,1862 0,253 -36,501 -143,732 -217,470 -597,727 -1097,817 -105,18 -213,25 -319,25 -733,3 -1466,2 -2199,1 -382,0 -730,-101 -1027,-348 -302,-251 -462,-580 -511,-965 -9,-67 -14,-134 -14,-201 -1,-771 -5,-1542 2,-2312 4,-421 145,-795 458,-1089 260,-244 576,-371 927,-384 422,-15 846,-3 1269,-3 0,-3 0,-6 0,-8zm-5 4820c354,0 708,1 1061,-1 93,-1 187,-5 277,-22 347,-62 611,-236 749,-574 70,-171 93,-355 96,-533 11,-692 5,-1383 4,-2075 0,-75 -1,-151 -11,-224 -48,-332 -192,-604 -497,-770 -171,-92 -356,-127 -548,-127 -741,0 -1482,-1 -2223,0 -67,0 -135,4 -201,13 -377,53 -655,239 -794,605 -56,148 -74,303 -74,460 0,723 -1,1446 1,2169 0,89 6,178 22,265 71,386 286,651 669,758 127,35 264,51 397,54 357,7 715,2 1072,2z"/>
     <path class="fil0" d="M4025 2647c0,757 -617,1372 -1374,1370 -757,-2 -1366,-613 -1366,-1370 -1,-756 615,-1371 1372,-1370 751,1 1368,620 1368,1370zm-1370 876c483,1 880,-396 879,-878 -1,-478 -397,-876 -875,-877 -482,-2 -879,393 -880,877 -1,483 392,878 876,878z"/>
     <path class="fil0" d="M4076 1553c-172,-2 -307,-139 -306,-311 0,-173 139,-310 314,-308 169,1 307,141 306,310 0,173 -141,310 -314,309z"/>
    </g>
   </g>
  </g>
 </g>
</svg>
