<?xml version="1.0" encoding="UTF-8"?>
<!DOCTYPE svg PUBLIC "-//W3C//DTD SVG 1.1//EN" "http://www.w3.org/Graphics/SVG/1.1/DTD/svg11.dtd">
<!-- Creator: CorelDRAW X7 -->
<svg xmlns="http://www.w3.org/2000/svg" xml:space="preserve" width="149.036mm" height="149.036mm" version="1.1" style="shape-rendering:geometricPrecision; text-rendering:geometricPrecision; image-rendering:optimizeQuality; fill-rule:evenodd; clip-rule:evenodd"
viewBox="0 0 1088 1088"
 xmlns:xlink="http://www.w3.org/1999/xlink">
 <defs>
  <style type="text/css">
   <![CDATA[
    .fil0 {fill:#F5E0AD}
   ]]>
  </style>
 </defs>
 <g id="Capa_x0020_1">
  <metadata id="CorelCorpID_0Corel-Layer"/>
  <g id="_1750893741264">
   <g>
    <path id="WhatsApp" class="fil0" d="M1088 530c0,293 -239,530 -534,530 -94,0 -182,-24 -258,-66l-296 94 96 -284c-48,-80 -76,-174 -76,-274 0,-293 239,-530 534,-530 295,0 534,237 534,530zm-534 -446c-248,0 -449,200 -449,446 0,98 32,188 85,262l-56 165 173 -55c71,47 156,74 247,74 248,0 449,-200 449,-446 0,-246 -201,-446 -449,-446zm270 568c-3,-5 -12,-8 -25,-15 -13,-6 -78,-38 -90,-42 -12,-4 -20,-7 -29,6 -9,13 -34,43 -42,51 -7,9 -15,10 -28,4 -13,-7 -55,-21 -105,-65 -39,-34 -66,-77 -73,-90 -8,-13 -1,-20 6,-26 5,-6 13,-16 19,-23 7,-8 9,-13 13,-22 5,-9 2,-16 -1,-23 -3,-6 -29,-70 -40,-96 -11,-26 -22,-22 -30,-22 -7,0 -16,-1 -25,-1 -9,0 -23,3 -35,16 -12,13 -46,45 -46,109 0,64 47,126 54,134 6,9 91,144 224,196 133,52 133,35 157,33 24,-2 77,-32 88,-62 11,-30 11,-56 8,-62z"/>
   </g>
   <g>
   </g>
   <g>
   </g>
   <g>
   </g>
   <g>
   </g>
   <g>
   </g>
   <g>
   </g>
   <g>
   </g>
   <g>
   </g>
   <g>
   </g>
   <g>
   </g>
   <g>
   </g>
   <g>
   </g>
   <g>
   </g>
   <g>
   </g>
   <g>
   </g>
  </g>
 </g>
</svg>
